<svg width="24" height="42" xmlns="http://www.w3.org/2000/svg" xml:space="preserve" overflow="hidden"><g transform="translate(-175 -202)"><path d="M19.7143 41.1429 4.28571 41.1429C1.91878 41.1429 0 39.2241 0 36.8571L0 4.28571C-7.61295e-16 1.91878 1.91878 0 4.28571 0L19.7143 0C22.0812 -7.61295e-16 24 1.91878 24 4.28571L24 36.8571C24 39.2241 22.0812 41.1429 19.7143 41.1429ZM4.28571 1.71429C2.86555 1.71429 1.71429 2.86555 1.71429 4.28571L1.71429 36.8571C1.71429 38.2773 2.86555 39.4286 4.28571 39.4286L19.7143 39.4286C21.1344 39.4286 22.2857 38.2773 22.2857 36.8571L22.2857 4.28571C22.2857 2.86555 21.1344 1.71429 19.7143 1.71429Z" fill="#0070C0" transform="matrix(1 0 0 1.02083 175 202)"/><path d="M23.1429 8.57143 0.857143 8.57143C0.383757 8.57143 0 8.18767 0 7.71429 -1.90323e-16 7.2409 0.383757 6.85714 0.857143 6.85714L23.1429 6.85714C23.6162 6.85714 24 7.2409 24 7.71429 24 8.18767 23.6162 8.57143 23.1429 8.57143Z" fill="#0070C0" transform="matrix(1 0 0 1.02083 175 202)"/><path d="M23.1429 34.2857 0.857143 34.2857C0.383757 34.2857 0 33.9019 0 33.4286 -1.90323e-16 32.9553 0.383757 32.5714 0.857143 32.5714L23.1429 32.5714C23.6162 32.5714 24 32.9553 24 33.4286 24 33.9019 23.6162 34.2857 23.1429 34.2857Z" fill="#0070C0" transform="matrix(1 0 0 1.02083 175 202)"/><path d="M16.2857 5.14286 7.71429 5.14286C7.2409 5.14286 6.85714 4.7591 6.85714 4.28571 6.85714 3.81233 7.2409 3.42857 7.71429 3.42857L16.2857 3.42857C16.7591 3.42857 17.1429 3.81233 17.1429 4.28571 17.1429 4.7591 16.7591 5.14286 16.2857 5.14286Z" fill="#0070C0" transform="matrix(1 0 0 1.02083 175 202)"/><path d="M12 38.5714C11.0532 38.5714 10.2857 37.8039 10.2857 36.8571 10.2857 35.9103 11.0532 35.1429 12 35.1429 12.9468 35.1429 13.7143 35.9103 13.7143 36.8571 13.7143 37.8039 12.9468 38.5714 12 38.5714Z" fill="#0070C0" transform="matrix(1 0 0 1.02083 175 202)"/><path d="M12 28.9371 11.7771 28.9371C6.24 27.4286 5.14286 23.8629 5.14286 23.7086 5.13465 23.6345 5.13465 23.5598 5.14286 23.4857L5.14286 14.6057C5.13895 14.2818 5.31804 13.9833 5.60571 13.8343 5.88055 13.6714 6.22231 13.6714 6.49714 13.8343 7.20972 14.4095 8.08551 14.7454 9 14.7943 9.89705 14.8121 10.7517 14.4132 11.3143 13.7143 11.6289 13.3356 12.1909 13.2836 12.5696 13.5982 12.6118 13.6332 12.6507 13.6721 12.6857 13.7143 13.2448 14.4196 14.1 14.8251 15 14.8114 15.9145 14.7626 16.7903 14.4267 17.5029 13.8514 17.7777 13.6886 18.1195 13.6886 18.3943 13.8514 18.6819 14.0004 18.8611 14.2989 18.8571 14.6229L18.8571 23.4857C18.8654 23.5598 18.8654 23.6345 18.8571 23.7086 18.8571 23.8629 17.7943 27.36 12.2571 28.8514ZM6.85714 23.3486C7.02857 23.8114 8.07429 26.0229 12 27.1886 15.9257 26.0229 16.9543 23.76 17.1429 23.3486L17.1429 16.08C15.4665 16.9194 13.4538 16.698 12 15.5143 10.5462 16.698 8.53347 16.9194 6.85714 16.08Z" fill="#0070C0" transform="matrix(1 0 0 1.02083 175 202)"/></g></svg>
